<svg width="32" height="32" viewBox="0 0 32 32" fill="none" xmlns="http://www.w3.org/2000/svg">
<g id="cart" clip-path="url(#clip0_753_152)">
<g id="Vector">
<path d="M27.2508 25.8667H6.57778C6.29587 25.8667 6.01397 25.6759 5.82603 25.4851C5.63809 25.2944 5.6381 24.9128 5.73206 24.6267L7.51746 20.0482L5.73206 2.97436H0V1.06667H6.57778C7.04762 1.06667 7.42349 1.4482 7.51746 1.92513L9.39683 20.0482C9.39683 20.239 9.39683 20.3344 9.30286 20.5251L7.9873 23.959H28.1905L27.2508 25.8667Z" fill="#D27A0F"/>
<path d="M8.38095 21.4104L8 19.4729L30.0952 14.8229V6.87917H7.2381V4.94167H31.0476C31.619 4.94167 32 5.32917 32 5.91042V15.5979C32 16.0823 31.7143 16.4698 31.2381 16.5667L8.38095 21.4104ZM28.1905 32.0667C26.0952 32.0667 24.381 30.3229 24.381 28.1917C24.381 26.0604 26.0952 24.3167 28.1905 24.3167C30.2857 24.3167 32 26.0604 32 28.1917C32 30.3229 30.2857 32.0667 28.1905 32.0667ZM28.1905 26.2542C27.1429 26.2542 26.2857 27.126 26.2857 28.1917C26.2857 29.2573 27.1429 30.1292 28.1905 30.1292C29.2381 30.1292 30.0952 29.2573 30.0952 28.1917C30.0952 27.126 29.2381 26.2542 28.1905 26.2542ZM5.33333 32.0667C3.2381 32.0667 1.52381 30.3229 1.52381 28.1917C1.52381 26.0604 3.2381 24.3167 5.33333 24.3167C7.42857 24.3167 9.14286 26.0604 9.14286 28.1917C9.14286 30.3229 7.42857 32.0667 5.33333 32.0667ZM5.33333 26.2542C4.28571 26.2542 3.42857 27.126 3.42857 28.1917C3.42857 29.2573 4.28571 30.1292 5.33333 30.1292C6.38095 30.1292 7.2381 29.2573 7.2381 28.1917C7.2381 27.126 6.38095 26.2542 5.33333 26.2542Z" fill="#D27A0F"/>
</g>
</g>
<defs>
<clipPath id="clip0_753_152">
<rect width="32" height="32" fill="white"/>
</clipPath>
</defs>
</svg>
