<svg width="32" height="32" viewBox="0 0 32 32" fill="none" xmlns="http://www.w3.org/2000/svg">
<g id="Instagram" clip-path="url(#clip0_753_148)">
<path id="Instagram_2" d="M16 12.032C15.2152 12.032 14.448 12.2647 13.7955 12.7007C13.143 13.1367 12.6344 13.7565 12.334 14.4815C12.0337 15.2066 11.9551 16.0044 12.1082 16.7741C12.2614 17.5438 12.6393 18.2509 13.1942 18.8058C13.7491 19.3607 14.4562 19.7386 15.2259 19.8918C15.9956 20.0449 16.7934 19.9663 17.5185 19.666C18.2435 19.3656 18.8633 18.857 19.2993 18.2045C19.7353 17.552 19.968 16.7848 19.968 16C19.968 15.4789 19.8654 14.9629 19.666 14.4815C19.4665 14.0001 19.1743 13.5627 18.8058 13.1942C18.4373 12.8257 17.9999 12.5335 17.5185 12.334C17.0371 12.1346 16.5211 12.032 16 12.032V12.032ZM31.888 8.112C31.8796 6.87641 31.6521 5.65211 31.216 4.496C30.8949 3.65002 30.398 2.88175 29.7581 2.2419C29.1182 1.60204 28.35 1.10515 27.504 0.784C26.3479 0.347942 25.1236 0.120417 23.888 0.112C21.824 -1.13533e-07 21.216 0 16 0C10.784 0 10.176 -1.13533e-07 8.112 0.112C6.87641 0.120417 5.65211 0.347942 4.496 0.784C3.65002 1.10515 2.88175 1.60204 2.2419 2.2419C1.60204 2.88175 1.10515 3.65002 0.784 4.496C0.347942 5.65211 0.120417 6.87641 0.112 8.112C-1.13533e-07 10.176 0 10.784 0 16C0 21.216 -1.13533e-07 21.824 0.112 23.888C0.129222 25.1279 0.356439 26.356 0.784 27.52C1.10372 28.3621 1.60021 29.1259 2.24 29.76C2.87711 30.4037 3.64702 30.9006 4.496 31.216C5.65211 31.6521 6.87641 31.8796 8.112 31.888C10.176 32 10.784 32 16 32C21.216 32 21.824 32 23.888 31.888C25.1236 31.8796 26.3479 31.6521 27.504 31.216C28.353 30.9006 29.1229 30.4037 29.76 29.76C30.3998 29.1259 30.8963 28.3621 31.216 27.52C31.6516 26.3582 31.8791 25.1287 31.888 23.888C32 21.824 32 21.216 32 16C32 10.784 32 10.176 31.888 8.112V8.112ZM27.824 20.912C27.7727 21.8994 27.5619 22.8719 27.2 23.792C26.8894 24.5595 26.4276 25.2567 25.8422 25.8422C25.2567 26.4276 24.5595 26.8894 23.792 27.2C22.8632 27.5417 21.8852 27.7309 20.896 27.76H11.104C10.1148 27.7309 9.13678 27.5417 8.208 27.2C7.41456 26.9051 6.69804 26.4348 6.112 25.824C5.53227 25.25 5.08455 24.5566 4.8 23.792C4.45689 22.8642 4.27297 21.8851 4.256 20.896V11.104C4.27297 10.1149 4.45689 9.13582 4.8 8.208C5.09485 7.41456 5.56524 6.69804 6.176 6.112C6.75253 5.5354 7.44522 5.08815 8.208 4.8C9.13678 4.45825 10.1148 4.26914 11.104 4.24H20.896C21.8852 4.26914 22.8632 4.45825 23.792 4.8C24.5854 5.09485 25.302 5.56524 25.888 6.176C26.4677 6.75 26.9154 7.44341 27.2 8.208C27.5417 9.13678 27.7309 10.1148 27.76 11.104V16C27.76 19.296 27.872 19.632 27.824 20.896V20.912ZM25.264 9.008C25.0735 8.49117 24.7731 8.02183 24.3837 7.63234C23.9942 7.24286 23.5248 6.9425 23.008 6.752C22.2984 6.50602 21.551 6.38687 20.8 6.4H11.2C10.4452 6.40738 9.69771 6.54821 8.992 6.816C8.48309 6.99785 8.01871 7.28594 7.62973 7.66112C7.24076 8.0363 6.9361 8.48998 6.736 8.992C6.50364 9.70459 6.39013 10.4506 6.4 11.2V20.8C6.41586 21.5539 6.55643 22.3 6.816 23.008C7.0065 23.5248 7.30686 23.9942 7.69634 24.3837C8.08583 24.7731 8.55517 25.0735 9.072 25.264C9.75467 25.5151 10.473 25.6555 11.2 25.68H20.8C21.5548 25.6726 22.3023 25.5318 23.008 25.264C23.5248 25.0735 23.9942 24.7731 24.3837 24.3837C24.7731 23.9942 25.0735 23.5248 25.264 23.008C25.5318 22.3023 25.6726 21.5548 25.68 20.8V11.2C25.6805 10.4445 25.5394 9.69556 25.264 8.992V9.008ZM16 22.112C15.1981 22.112 14.4041 21.9538 13.6635 21.6464C12.9228 21.3391 12.2501 20.8886 11.6838 20.3209C11.1175 19.7531 10.6688 19.0792 10.3634 18.3378C10.058 17.5963 9.90189 16.8019 9.904 16C9.904 14.7905 10.2629 13.6082 10.9352 12.6027C11.6075 11.5972 12.563 10.8139 13.6807 10.3517C14.7985 9.8896 16.0282 9.7695 17.2143 10.0066C18.4003 10.2438 19.4894 10.8275 20.3435 11.6839C21.1976 12.5402 21.7785 13.6308 22.0125 14.8174C22.2465 16.0041 22.1232 17.2335 21.6581 18.3501C21.1931 19.4666 20.4072 20.4201 19.4 21.0897C18.3928 21.7594 17.2095 22.1152 16 22.112V22.112ZM22.4 11.088C22.0463 11.0506 21.719 10.8836 21.4811 10.6192C21.2432 10.3548 21.1116 10.0117 21.1116 9.656C21.1116 9.30033 21.2432 8.95725 21.4811 8.69285C21.719 8.42845 22.0463 8.26144 22.4 8.224C22.7537 8.26144 23.081 8.42845 23.3189 8.69285C23.5568 8.95725 23.6884 9.30033 23.6884 9.656C23.6884 10.0117 23.5568 10.3548 23.3189 10.6192C23.081 10.8836 22.7537 11.0506 22.4 11.088Z" fill="#D27A0F"/>
</g>
<defs>
<clipPath id="clip0_753_148">
<rect width="32" height="32" fill="white"/>
</clipPath>
</defs>
</svg>
