<?xml version="1.0" encoding="utf-8"?>
<svg  viewBox="0 0 30 30" fill="none" xmlns="http://www.w3.org/2000/svg">
  <path d="M 14.991 -0.008 C 14.546 -0.008 14.1 0.091 13.754 0.292 L 2.727 6.67 C 2.038 7.069 2.038 7.702 2.727 8.101 L 13.754 14.48 C 14.445 14.879 15.537 14.879 16.229 14.48 L 27.254 8.101 C 27.945 7.702 27.945 7.069 27.254 6.67 L 16.229 0.292 C 15.883 0.091 15.437 -0.008 14.991 -0.008 Z M 14.932 3.826 C 15.582 3.833 16.168 3.982 16.686 4.273 C 17.041 4.471 17.274 4.699 17.384 4.955 C 17.49 5.207 17.497 5.541 17.404 5.955 L 17.287 6.368 C 17.211 6.662 17.195 6.873 17.239 7.003 C 17.281 7.13 17.383 7.24 17.546 7.331 L 17.79 7.467 L 15.392 8.812 L 15.126 8.663 C 14.827 8.497 14.638 8.308 14.556 8.099 C 14.47 7.886 14.485 7.549 14.599 7.087 L 14.709 6.673 C 14.773 6.425 14.779 6.223 14.728 6.064 C 14.681 5.905 14.574 5.777 14.407 5.684 C 14.153 5.542 13.849 5.49 13.495 5.531 C 13.137 5.57 12.769 5.695 12.387 5.908 C 12.028 6.109 11.701 6.36 11.408 6.663 C 11.112 6.963 10.858 7.307 10.645 7.694 L 8.938 6.737 C 9.322 6.353 9.699 6.015 10.07 5.726 C 10.441 5.438 10.831 5.177 11.244 4.946 C 12.325 4.341 13.329 3.981 14.26 3.867 C 14.483 3.837 14.707 3.824 14.932 3.826 Z M 18.596 7.918 L 20.532 9.003 L 18.131 10.348 L 16.196 9.262 L 18.596 7.918 Z M 1.992 9.309 C 1.577 9.299 1.293 9.622 1.293 10.196 L 1.293 21.58 C 1.293 22.377 1.84 23.324 2.531 23.722 L 13.137 29.847 C 13.828 30.246 14.374 29.931 14.374 29.133 L 14.374 17.75 C 14.374 16.951 13.828 16.005 13.137 15.606 L 2.531 9.482 C 2.336 9.37 2.154 9.314 1.992 9.309 Z M 28.034 9.309 C 27.872 9.314 27.689 9.37 27.495 9.482 L 16.887 15.607 C 16.197 16.005 15.651 16.953 15.651 17.75 L 15.651 29.133 C 15.651 29.931 16.197 30.246 16.887 29.847 L 27.495 23.723 C 28.186 23.324 28.731 22.378 28.731 21.58 L 28.731 10.196 C 28.731 9.622 28.449 9.299 28.034 9.309 Z M 4.822 13.912 C 5.296 14.01 5.728 14.132 6.119 14.274 C 6.51 14.418 6.889 14.594 7.251 14.803 C 8.205 15.354 8.931 15.98 9.432 16.685 C 9.933 17.384 10.183 18.133 10.183 18.926 C 10.183 19.332 10.106 19.654 9.954 19.89 C 9.801 20.122 9.541 20.317 9.173 20.475 L 8.798 20.614 C 8.534 20.718 8.359 20.825 8.277 20.936 C 8.194 21.041 8.153 21.188 8.153 21.375 L 8.153 21.655 L 6.037 20.433 L 6.037 20.127 C 6.037 19.787 6.102 19.524 6.231 19.336 C 6.358 19.144 6.631 18.965 7.045 18.797 L 7.42 18.653 C 7.643 18.565 7.807 18.456 7.907 18.323 C 8.013 18.192 8.065 18.032 8.065 17.841 C 8.065 17.55 7.971 17.269 7.784 16.999 C 7.597 16.725 7.334 16.49 6.998 16.296 C 6.682 16.113 6.34 15.986 5.972 15.915 C 5.604 15.84 5.222 15.825 4.822 15.868 L 4.822 13.912 Z M 24.281 14.533 C 24.39 14.533 24.491 14.545 24.585 14.568 C 25.086 14.691 25.336 15.149 25.336 15.942 C 25.336 16.35 25.26 16.759 25.107 17.172 C 24.954 17.579 24.694 18.074 24.327 18.657 L 23.951 19.227 C 23.686 19.639 23.511 19.947 23.43 20.153 C 23.348 20.354 23.307 20.547 23.307 20.734 L 23.307 21.015 L 21.19 22.237 L 21.19 21.932 C 21.19 21.591 21.254 21.253 21.384 20.917 C 21.513 20.575 21.784 20.083 22.198 19.436 L 22.574 18.858 C 22.797 18.513 22.959 18.217 23.061 17.967 C 23.166 17.714 23.22 17.493 23.22 17.301 C 23.22 17.011 23.125 16.839 22.937 16.785 C 22.75 16.727 22.488 16.795 22.152 16.99 C 21.834 17.172 21.493 17.44 21.125 17.794 C 20.758 18.143 20.375 18.57 19.976 19.074 L 19.976 17.117 C 20.449 16.67 20.881 16.292 21.272 15.983 C 21.664 15.673 22.041 15.415 22.404 15.204 C 23.179 14.757 23.804 14.533 24.281 14.533 Z M 6.037 21.355 L 8.153 22.578 L 8.153 24.797 L 6.037 23.575 L 6.037 21.355 Z M 23.307 21.937 L 23.307 24.156 L 21.19 25.378 L 21.19 23.159 L 23.307 21.937 Z" fill="#D27A0F" style=""/>
</svg>