<svg width="30" height="30" viewBox="0 0 30 30" fill="none" xmlns="http://www.w3.org/2000/svg">
<path d="M14.986 2.6228C14.6241 2.6228 14.2621 2.7039 13.9818 2.86608L5.03146 8.04343C4.47072 8.3678 4.47072 8.88073 5.03146 9.20511L13.9818 14.3825C14.5426 14.7068 15.4293 14.7068 15.99 14.3825L24.9403 9.20511C25.5011 8.88079 25.5011 8.3678 24.9403 8.04349L15.99 2.86614C15.7096 2.70384 15.3478 2.6228 14.986 2.6228ZM14.9377 5.73472C15.4658 5.7404 15.9406 5.8614 16.3621 6.09753C16.6504 6.25913 16.8392 6.44341 16.9285 6.65054C17.0148 6.85603 17.0199 7.1269 16.9437 7.46294L16.8499 7.79728C16.7878 8.03651 16.7749 8.2086 16.8113 8.31349C16.8447 8.41685 16.9275 8.50556 17.0598 8.57974L17.2585 8.69095L15.3111 9.78196L15.0947 9.66085C14.8534 9.52573 14.6995 9.37304 14.6328 9.20265C14.5632 9.03067 14.5748 8.75716 14.6676 8.38204L14.7569 8.04524C14.8089 7.84468 14.8139 7.68021 14.7721 7.552C14.7339 7.42169 14.6471 7.31862 14.5118 7.2428C14.3058 7.12737 14.0591 7.08601 13.7717 7.11841C13.4813 7.14923 13.1816 7.2513 12.8723 7.42456C12.581 7.58774 12.3164 7.79206 12.0784 8.03745C11.8374 8.28132 11.6307 8.56034 11.458 8.87464L10.0723 8.09815C10.3839 7.78526 10.69 7.51163 10.9908 7.27708C11.2916 7.04271 11.6092 6.83177 11.9436 6.64427C12.8211 6.15267 13.6372 5.86028 14.3917 5.76729C14.5728 5.74402 14.7552 5.73312 14.9378 5.73466L14.9377 5.73472ZM17.9117 9.05698L19.4829 9.9373L17.5355 11.0283L15.9643 10.1481L17.9117 9.05698ZM4.4338 10.1858C4.09671 10.1768 3.86755 10.4399 3.86755 10.9054V20.1454C3.86755 20.793 4.31111 21.5612 4.87185 21.885L13.481 26.8566C14.0418 27.1804 14.4853 26.9243 14.4853 26.2768V17.0366C14.4853 16.3891 14.0418 15.621 13.481 15.2971L4.87185 10.3256C4.71423 10.2345 4.5657 10.1892 4.4338 10.1857V10.1858ZM25.5728 10.186C25.441 10.1895 25.2926 10.2346 25.1349 10.3257L16.5254 15.2972C15.9647 15.6211 15.5211 16.3893 15.5211 17.0369V26.2771C15.5211 26.9246 15.9647 27.1805 16.5254 26.8566L25.135 21.8853C25.6957 21.5614 26.1391 20.7933 26.1391 20.1457V10.9055C26.1391 10.4401 25.91 10.1771 25.5728 10.1861V10.186ZM6.73232 13.9214C7.11628 14.0015 7.46697 14.0994 7.78431 14.2152C8.10244 14.3313 8.40985 14.4749 8.70306 14.6444C9.47726 15.0914 10.0675 15.6008 10.4736 16.1726C10.8798 16.741 11.0829 17.3472 11.0829 17.9914C11.0829 18.3218 11.0211 18.5828 10.8973 18.7744C10.7735 18.9626 10.5625 19.1207 10.2642 19.2487L9.95955 19.3612C9.7438 19.4457 9.60253 19.5327 9.53591 19.6225C9.46929 19.7087 9.43601 19.8277 9.43601 19.9794V20.2071L7.71775 19.2149V18.9671C7.71775 18.6905 7.77001 18.4763 7.87478 18.3243C7.97949 18.1689 8.20009 18.0231 8.53642 17.8868L8.84111 17.7692C9.02199 17.6983 9.15365 17.6092 9.23615 17.5016C9.32169 17.396 9.36459 17.2656 9.36459 17.1105C9.36459 16.8745 9.28841 16.6467 9.13607 16.4273C8.98373 16.2044 8.77121 16.0142 8.49828 15.8566C8.24123 15.7082 7.96355 15.6052 7.66525 15.5476C7.36701 15.4867 7.05599 15.4742 6.73232 15.5099V13.9214ZM22.5257 14.4258C22.6149 14.4258 22.6975 14.4354 22.7736 14.4546C23.1798 14.554 23.3829 14.9257 23.3829 15.5699C23.3829 15.9004 23.321 16.2328 23.1973 16.5674C23.0735 16.8984 22.8625 17.3002 22.5642 17.7725L22.2595 18.2368C22.0438 18.5705 21.9025 18.8206 21.8359 18.9872C21.7693 19.1504 21.736 19.3079 21.736 19.4597V19.6873L20.0177 20.6794V20.4316C20.0177 20.155 20.0701 19.8802 20.1748 19.6073C20.2797 19.331 20.5001 18.9306 20.8364 18.4059L21.1411 17.9366C21.322 17.6567 21.4536 17.4154 21.5361 17.2127C21.6217 17.0081 21.6646 16.8282 21.6646 16.6731C21.6646 16.437 21.5884 16.2972 21.4362 16.2536C21.2838 16.2068 21.0711 16.262 20.7983 16.4195C20.5412 16.5679 20.2637 16.7857 19.9654 17.0725C19.6671 17.3561 19.3561 17.7025 19.0324 18.1119V16.5235C19.4164 16.1602 19.767 15.8532 20.0842 15.6025C20.4016 15.3518 20.7079 15.1414 21.0029 14.971C21.6321 14.6077 22.1397 14.426 22.5258 14.4257L22.5257 14.4258ZM7.71769 19.9637L9.43601 20.9557V22.7567L7.71775 21.7647V19.9638L7.71769 19.9637ZM21.736 20.436V22.2369L20.0177 23.2289V21.4281L21.736 20.436Z" fill="#D27A0F"/>
</svg>