<svg width="32" height="32" viewBox="0 0 32 32" fill="none" xmlns="http://www.w3.org/2000/svg">
<g id="TikTok">
<path id="TikTok_2" d="M16.4917 0.0266663C18.2253 0 19.9457 0.0133332 21.666 0C21.7719 2.03997 22.4997 4.11995 23.9818 5.55993C25.464 7.03991 27.5548 7.7199 29.5928 7.94657V13.3198C27.6872 13.2532 25.7683 12.8532 24.0348 12.0265C23.2805 11.6799 22.5791 11.2399 21.891 10.7865C21.8777 14.6798 21.9042 18.5731 21.8645 22.4531C21.7586 24.3197 21.1499 26.173 20.078 27.7063C18.3444 30.2663 15.3404 31.9329 12.2571 31.9863C10.3647 32.0929 8.47232 31.5729 6.85784 30.6129C4.1847 29.0263 2.30556 26.1197 2.02766 22.9997C2.00119 22.3331 1.98796 21.6664 2.01443 21.0131C2.25263 18.4798 3.49656 16.0531 5.42864 14.3998C7.62538 12.4798 10.6955 11.5599 13.5672 12.1065C13.5936 14.0798 13.5142 16.0531 13.5142 18.0264C12.2041 17.5998 10.6691 17.7198 9.51775 18.5198C8.68405 19.0664 8.04885 19.9064 7.71801 20.8531C7.44011 21.5331 7.51951 22.2797 7.53275 22.9997C7.85035 25.1863 9.94122 27.0263 12.1644 26.8263C13.6466 26.813 15.0625 25.9463 15.8301 24.6797C16.0815 24.2397 16.3594 23.7864 16.3726 23.2664C16.505 20.8797 16.452 18.5064 16.4653 16.1198C16.4785 10.7465 16.452 5.3866 16.4917 0.0266663V0.0266663Z" fill="#D27A0F"/>
</g>
</svg>
