<svg width="38" height="38" viewBox="0 0 38 38" fill="none" xmlns="http://www.w3.org/2000/svg">
<g clip-path="url(#clip0_48_37)">
<path d="M34.0219 9.5C28.5807 6.81744 23.139 4.1325 17.6997 1.44994C17.3292 1.26766 16.9385 1.01472 16.5062 1.14475C16.2397 1.22609 15.9778 1.42025 15.7391 1.55562C14.4863 2.2705 13.2317 2.98359 11.9783 3.69966C8.65568 5.59669 5.33246 7.49194 2.00687 9.38897C1.57818 9.63478 1.14771 9.87762 0.717838 10.1234C0.591435 10.1627 0.475676 10.2303 0.3794 10.3212C-0.0932246 10.6341 -0.0944121 11.1667 0.1514 11.555C0.220869 11.6927 0.330713 11.8192 0.482713 11.9237L15.9737 22.3826C16.3352 22.626 16.6974 22.8712 17.0578 23.1159C17.3161 23.2887 17.7692 23.2768 18.0191 23.0927C23.0132 19.3711 28.0102 15.6483 33.0054 11.9249C33.3575 11.6642 33.7078 11.4036 34.0569 11.1429C34.5954 10.7433 34.71 9.842 34.0207 9.5" fill="#D07929"/>
<path d="M18.3677 22.1409C18.2484 21.7449 17.8405 21.5294 17.5186 21.3091C12.2533 17.7169 6.9879 14.1307 1.72252 10.5325C1.66558 10.4469 1.59109 10.3743 1.50397 10.3197C1.41686 10.265 1.31912 10.2295 1.21724 10.2155C0.717899 10.0071 0.27318 10.3449 0.112274 10.8015C0.0195646 10.9946 -0.00713778 11.2128 0.0362735 11.4226C0.571242 14.3076 1.10977 17.195 1.64593 20.0806L2.60246 25.2225C2.73427 25.9225 2.73902 26.543 3.3298 27.0038L17.1404 37.7803C17.7674 38.269 18.7679 37.9632 18.7471 37.0714L18.5387 28.0939C18.5007 26.445 18.4609 24.7974 18.4253 23.1479C18.4176 22.8285 18.4591 22.4438 18.3677 22.135" fill="#F6921E"/>
<path d="M0.561741 14.1544C0.751741 14.0505 0.97796 14.0178 1.21724 14.1176C1.41615 14.1502 1.59962 14.2512 1.72252 14.4352L17.5186 25.2118C17.8405 25.4321 18.2484 25.647 18.3677 26.0431C18.4591 26.3536 18.4176 26.736 18.4259 27.0554C18.4621 28.7048 18.5013 30.3543 18.5393 32.0037L18.6628 37.3772C18.7151 37.259 18.7507 37.129 18.7477 36.9734L18.5393 27.9959C18.5013 26.3471 18.4615 24.697 18.4259 23.0476C18.4176 22.7299 18.4597 22.3452 18.3677 22.0352C18.2484 21.6404 17.8405 21.4237 17.5186 21.204C12.2533 17.6118 6.9879 14.0256 1.72252 10.4274C1.66522 10.3421 1.59064 10.2697 1.5036 10.215C1.41656 10.1602 1.31901 10.1244 1.21724 10.1098C0.717898 9.90256 0.273179 10.241 0.112273 10.697C0.0195668 10.8899 -0.00713813 11.1079 0.0362727 11.3175C0.209648 12.2633 0.385398 13.2086 0.561741 14.1544" fill="#9A5524"/>
<path d="M33.1015 9.58313C28.2055 13.2074 23.31 16.834 18.4128 20.4588C18.085 20.6999 17.7573 20.9439 17.4319 21.1856C17.398 21.2099 17.3725 21.2331 17.3452 21.2563C17.1297 21.4124 16.9836 21.6659 16.9907 22.0192C17.1089 27.0477 17.2247 32.0791 17.3416 37.1082C17.3624 38 18.3504 38.2595 18.9364 37.7429C23.2417 33.9578 27.5494 30.1726 31.8582 26.3904C32.3421 25.9641 32.3101 24.8128 32.3991 24.2286C32.6734 22.4503 32.9442 20.6726 33.2167 18.8943C33.6407 16.1363 34.0634 13.3831 34.485 10.6269C34.6002 9.88 33.8235 9.05113 33.1015 9.58609" fill="#D07929"/>
<path d="M17.3434 24.925C17.3707 24.9042 17.3974 24.8811 17.4301 24.8579C17.7543 24.6258 18.0832 24.3901 18.411 24.1603C23.307 20.669 28.2037 17.179 33.1009 13.6919C33.4132 13.4674 33.7356 13.5007 33.9916 13.6592C34.1548 12.6344 34.3193 11.6066 34.4814 10.5806C34.5984 9.86278 33.8217 9.06478 33.1009 9.57778C28.2037 13.0667 23.307 16.5573 18.411 20.0462C18.0832 20.2795 17.7543 20.5129 17.4301 20.745C17.3974 20.7682 17.3707 20.7913 17.3434 20.8133C17.1291 20.9635 16.983 21.2082 16.9901 21.5472C17.0204 22.778 17.0495 24.0101 17.0792 25.2427C17.1421 25.1121 17.2312 25.0034 17.3434 24.925Z" fill="#9A5524"/>
<path d="M22.2698 3.70738L5.68579 13.1338L11.0295 16.7794L26.5145 5.80213L22.2698 3.70738Z" fill="#BE202E"/>
<path d="M11.5348 3.95616L28.2726 13.0198L22.2283 17.3256L7.55908 6.22666L11.5348 3.95616Z" fill="#BE202E"/>
<path d="M11.0324 16.7794L11.7597 33.5884L6.94561 29.83L5.68567 13.1337M22.2258 17.3256V34.8531L27.7132 30.0325L28.2701 13.0197" fill="#CC2F42"/>
<path d="M15.4731 3.5803C13.3766 5.3188 12.2419 8.46805 11.9825 10.8098C11.7046 13.3083 11.6535 15.925 10.0878 18.0464C9.86337 18.351 10.0623 18.5386 10.3776 18.3475C11.2866 17.7905 12.0686 17.1231 12.7923 16.3649C13.2543 17.303 13.1017 18.414 12.9972 19.4388C12.9485 19.9043 13.642 19.3289 13.7441 19.2226C15.8697 16.8957 15.1721 14.0279 15.7421 11.1381C17.252 3.48886 16.9557 2.35242 15.4731 3.5803Z" fill="#CC2F42"/>
<path d="M18.4656 11.0758C19.8045 13.6984 19.9114 16.6481 22.5946 18.3059C22.7175 18.3801 23.5446 18.7447 23.3712 18.3106C22.9942 17.3529 22.5405 16.3263 22.7305 15.2991C23.6318 15.8329 24.5664 16.2616 25.596 16.5478C25.9528 16.6452 26.087 16.4136 25.7878 16.1797C23.7055 14.5647 22.9407 12.0632 21.9931 9.73511C21.1013 7.55189 19.1532 4.82896 16.6606 3.7323C14.899 2.95508 14.9269 4.12833 18.4656 11.0752" fill="#CC2F42"/>
<path d="M8.38369 2.06921C10.6388 1.75452 15.7735 2.67721 16.049 4.6544C16.3233 6.6304 11.6351 8.91693 9.38179 9.23162C7.12791 9.54453 5.77119 8.09637 5.49629 6.12037C5.21841 4.1414 6.131 2.38212 8.38369 2.06921M22.7228 0.0748061C20.4665 0.390681 15.7788 2.67721 16.0549 4.6544C16.3293 6.6304 21.4664 7.55131 23.7155 7.23959C25.9741 6.9249 26.882 5.16384 26.6065 3.18665C26.3328 1.20531 24.9772 -0.237506 22.7228 0.0748061Z" fill="#CC2F42"/>
<path d="M20.149 3.66641C20.1995 4.03026 20.1779 4.40051 20.0853 4.75599C19.9927 5.11146 19.8309 5.4452 19.6092 5.73812C19.3876 6.03104 19.1103 6.2774 18.7934 6.46311C18.4764 6.64881 18.126 6.77023 17.7621 6.82041L14.9982 7.20576C14.2638 7.30851 13.5187 7.11542 12.9267 6.66893C12.3347 6.22245 11.9443 5.55913 11.8412 4.82482C11.7399 4.08985 11.9343 3.34469 12.3818 2.75292C12.8293 2.16115 13.4933 1.77112 14.2281 1.66844L16.9961 1.2831C17.731 1.18208 18.4759 1.37663 19.0675 1.82409C19.6591 2.27155 20.0491 2.93538 20.1519 3.66998" fill="#EF556C"/>
</g>
<defs>
<clipPath id="clip0_48_37">
<rect width="38" height="38" fill="white"/>
</clipPath>
</defs>
</svg>