<svg width="41" height="41" viewBox="0 0 41 41" fill="none" xmlns="http://www.w3.org/2000/svg">
<path d="M26.9553 28.1767C24.1001 27.5161 20.3748 31.6526 17.8755 31.6526L18.1352 35.9376L18.7553 38.7086H23.8877L24.4355 36.3038L27.0589 30.9909C27.2349 30.5396 27.3165 30.0571 27.2987 29.573C27.2808 29.089 27.164 28.6138 26.9553 28.1767Z" fill="#9B9B9A"/>
<path d="M23.5294 29.4158C23.9206 30.9738 21.9879 35.0527 21.9578 38.7086H23.8876C23.8876 38.7086 24.0602 36.9142 24.4354 36.3038C24.8107 35.6928 26.7753 30.9909 26.7753 30.9909C26.7753 30.9909 27.7644 28.6858 26.8447 28.1767C26.4826 28.1055 24.235 28.852 23.53 29.4158H23.5294Z" fill="#3F3F3F"/>
<path d="M25.215 24.7612C24.9126 24.1297 24.8498 23.4099 25.0385 22.7356C25.5294 20.9835 26.404 17.544 26.4365 16.6722C26.4809 15.4883 24.5972 14.1917 24.5972 14.1917C24.5972 14.1917 21.3633 10.8667 17.146 21.3735L15.1957 23.1656C14.493 24.0283 13.9583 25.0277 13.7225 26.1153C13.5329 26.9894 13.5596 27.7342 13.7322 28.3686C14.038 29.4921 14.8027 30.2682 15.6353 30.7984C17.0059 31.6719 18.5622 32.3359 18.5622 32.3359C22.7898 31.6492 22.14 28.8429 26.8448 28.1767L25.2145 24.7612H25.215Z" fill="#92D3F5"/>
<path d="M24.0152 13.9104L22.4071 23.6479L23.53 29.4158C23.53 29.4158 25.4001 28.3059 26.8448 28.1767L24.9189 23.4497L26.2309 16.3658L24.0158 13.9104H24.0152Z" fill="#61B2E4"/>
<path d="M13.1405 20.9783H13.1274C13.0376 20.9764 12.9494 20.9532 12.8703 20.9106C12.7911 20.868 12.7231 20.8073 12.6719 20.7335L11.7807 19.4408C11.7029 19.3164 11.6761 19.1668 11.7058 19.0232C11.7355 18.8795 11.8195 18.7528 11.9402 18.6695C12.061 18.5861 12.2092 18.5526 12.3541 18.5757C12.4989 18.5989 12.6293 18.6771 12.718 18.7939L13.1633 19.4403L13.673 18.7723C13.718 18.7119 13.7745 18.661 13.8393 18.6226C13.9041 18.5842 13.9759 18.559 14.0505 18.5485C14.1251 18.5381 14.201 18.5425 14.2739 18.5616C14.3468 18.5807 14.4151 18.614 14.475 18.6597C14.5349 18.7054 14.5852 18.7625 14.6228 18.8278C14.6605 18.893 14.6848 18.9651 14.6944 19.0398C14.704 19.1145 14.6987 19.1904 14.6788 19.2631C14.6589 19.3357 14.6248 19.4037 14.5784 19.463L13.5932 20.7545C13.5401 20.8243 13.4716 20.8808 13.3931 20.9197C13.3146 20.9586 13.2282 20.9789 13.1405 20.9789V20.9783Z" fill="#EA5A47"/>
<path d="M22.7735 12.1491C24.4342 11.3321 24.9481 8.97788 23.9213 6.89076C22.8946 4.80364 20.7159 3.774 19.0552 4.59099C17.3945 5.40799 16.8806 7.76224 17.9073 9.84936C18.9341 11.9365 21.1127 12.9661 22.7735 12.1491Z" fill="#FADCBC"/>
<path d="M16.8579 28.7586C16.568 28.7584 16.2891 28.6477 16.078 28.4489C15.8669 28.2502 15.7396 27.9785 15.722 27.6891C15.7043 27.3997 15.7977 27.1145 15.983 26.8916C16.1684 26.6687 16.4318 26.5249 16.7195 26.4894C18.4125 26.2804 19.4529 25.5282 19.8287 24.9474C20.0462 24.6114 20.1567 24.1479 20.2729 23.6581C20.3104 23.4998 20.3474 23.3427 20.3884 23.1901C21.1629 20.2603 21.2677 17.3783 21.2688 17.3493C21.2723 17.1993 21.3057 17.0515 21.367 16.9146C21.4283 16.7777 21.5163 16.6545 21.6259 16.552C21.7355 16.4495 21.8644 16.37 22.0051 16.318C22.1458 16.266 22.2954 16.2425 22.4453 16.2491C22.5948 16.2541 22.7419 16.2885 22.8781 16.3504C23.0144 16.4122 23.1371 16.5004 23.2392 16.6097C23.3414 16.719 23.421 16.8473 23.4736 16.9874C23.5261 17.1275 23.5505 17.2766 23.5454 17.4261C23.5409 17.5537 23.4304 20.5968 22.5905 23.772C22.5546 23.9064 22.5222 24.0454 22.4886 24.1849C22.3405 24.8101 22.1719 25.5197 21.7409 26.1848C20.8679 27.5332 19.0947 28.4916 16.9991 28.7501C16.9519 28.7558 16.9046 28.7586 16.8579 28.7586V28.7586Z" fill="#FADCBC"/>
<path d="M23.8871 7.6391H23.8814C18.5514 8.67548 18.2097 4.96271 18.1926 4.7634C18.5628 4.28507 19.0525 3.92062 19.639 3.72132C19.639 3.72132 24.2515 1.6884 26.0851 5.9934C27.6283 9.62646 27.4575 12.3313 27.3664 13.0887C27.3493 13.1969 27.2354 13.2709 27.1329 13.231C26.4268 12.9748 24.1205 12.0751 23.8244 11.1981L23.8871 7.6391Z" fill="#A57939"/>
<path d="M23.8894 38.7086C23.8077 38.7086 23.727 38.6912 23.6527 38.6573C23.5784 38.6235 23.5122 38.574 23.4587 38.5123C23.4051 38.4506 23.3655 38.3782 23.3425 38.2998C23.3194 38.2215 23.3135 38.1391 23.3251 38.0582L23.5882 36.2229C23.5973 36.1637 23.6149 36.1056 23.6417 36.0521L26.2645 30.7392C26.5419 30.0217 26.5111 29.1607 26.1586 28.4221L24.5277 25.0066C24.1664 24.2496 24.0919 23.3873 24.3182 22.5796C24.8626 20.635 25.6666 17.4045 25.6951 16.6506C25.7179 16.0538 24.7766 15.1273 24.1007 14.6603C24.0704 14.6391 24.0422 14.6151 24.0164 14.5886C24.0021 14.5755 23.5301 14.1342 22.7454 14.2999C21.7984 14.5015 19.8583 15.7161 17.5014 21.5854C17.4699 21.6642 17.4213 21.735 17.359 21.7926L16.0704 22.9771C15.3751 23.616 14.8546 24.2999 14.5232 25.01C14.3353 25.4137 14.1952 25.826 14.1069 26.2349C13.948 26.9638 13.9492 27.6312 14.1086 28.2188C14.3364 29.0548 14.8945 29.7614 15.768 30.3178C17.0105 31.1093 18.4512 31.3143 18.466 31.3155C18.6157 31.3356 18.7513 31.4144 18.843 31.5346C18.9346 31.6547 18.9748 31.8063 18.9546 31.9561C18.9344 32.1058 18.8556 32.2414 18.7355 32.3331C18.6153 32.4247 18.4637 32.4648 18.314 32.4447C18.2456 32.435 16.617 32.2089 15.1564 31.279C14.0363 30.5649 13.3142 29.6362 13.0096 28.5178C12.8017 27.7519 12.7966 26.9034 12.9931 25.994C13.0996 25.5031 13.2664 25.01 13.4908 24.5288C13.8854 23.6826 14.4936 22.8786 15.2993 22.1383L16.4935 21.0415C18.4398 16.232 20.4779 13.5864 22.5523 13.1775C23.7755 12.9361 24.5779 13.5636 24.7829 13.747C25.12 13.9856 26.8841 15.2987 26.8329 16.6933C26.7964 17.6801 25.8614 21.2927 25.4149 22.8871C25.2633 23.4291 25.3132 24.0077 25.5556 24.5157L27.1859 27.9318C27.4272 28.4394 27.5623 28.991 27.5829 29.5526C27.6034 30.1143 27.509 30.6743 27.3055 31.1982L24.7026 36.4746L24.4526 38.2194C24.4333 38.355 24.3657 38.4792 24.2622 38.569C24.1588 38.6589 24.0264 38.7084 23.8894 38.7086Z" fill="black"/>
<path d="M18.7564 38.7086C18.6093 38.7085 18.468 38.6516 18.3619 38.5497C18.2559 38.4478 18.1934 38.3088 18.1875 38.1619L18.0099 33.7584C18.0038 33.6075 18.058 33.4604 18.1604 33.3495C18.2628 33.2385 18.4051 33.1728 18.5559 33.1667C18.8674 33.1365 19.1351 33.3985 19.1476 33.7134L19.3258 38.1163C19.3288 38.1911 19.317 38.2657 19.2912 38.3359C19.2653 38.4061 19.2259 38.4705 19.1751 38.5254C19.1243 38.5804 19.0632 38.6248 18.9953 38.6561C18.9274 38.6874 18.8539 38.7051 18.7792 38.708H18.7564V38.7086Z" fill="black"/>
<path d="M21.9566 11.8359C20.2084 12.1719 18.3349 10.9248 17.6345 8.87479C17.122 7.36006 17.3783 5.79979 18.1926 4.7634C18.5627 4.28506 19.0524 3.92062 19.639 3.72131" stroke="black" stroke-miterlimit="10" stroke-linecap="round" stroke-linejoin="round"/>
<path d="M18.1926 4.75771V4.7634C18.2097 4.96271 18.5514 8.67548 23.8814 7.63909" stroke="black" stroke-miterlimit="10" stroke-linecap="round" stroke-linejoin="round"/>
<path d="M19.639 3.72132C19.639 3.72132 24.2515 1.6884 26.0851 5.9934C27.6283 9.62646 27.4575 12.3313 27.3664 13.0887C27.3493 13.1969 27.2354 13.2709 27.1329 13.231C26.4268 12.9748 24.1206 12.0751 23.8245 11.1981L23.8871 7.6391V7.6334" stroke="black" stroke-miterlimit="10" stroke-linecap="round" stroke-linejoin="round"/>
<path d="M17.6061 28.8765C17.2018 28.8765 16.7622 28.8458 16.2816 28.7809C16.2069 28.7715 16.1348 28.7475 16.0695 28.7102C16.0041 28.6728 15.9469 28.6229 15.9009 28.5633C15.855 28.5037 15.8214 28.4356 15.8019 28.3629C15.7825 28.2902 15.7776 28.2143 15.7877 28.1398C15.7977 28.0652 15.8225 27.9933 15.8604 27.9284C15.8984 27.8634 15.9489 27.8066 16.009 27.7613C16.069 27.716 16.1375 27.683 16.2104 27.6643C16.2833 27.6455 16.3591 27.6414 16.4336 27.6522C19.6641 28.0907 20.5199 26.8117 21.3838 24.9593C22.7015 21.6901 22.4788 17.3259 22.4766 17.2821C22.4724 17.2074 22.483 17.1327 22.5077 17.0622C22.5325 16.9916 22.5709 16.9266 22.6208 16.871C22.6706 16.8153 22.731 16.77 22.7984 16.7376C22.8658 16.7053 22.9389 16.6865 23.0135 16.6824C23.3193 16.6506 23.5955 16.9045 23.6132 17.2194C23.6234 17.4079 23.8523 21.8832 22.4282 25.4132C21.57 27.2542 20.5433 28.8765 17.6061 28.8765V28.8765Z" fill="black"/>
</svg>