<svg width="39" height="39" viewBox="0 0 39 39" fill="none" xmlns="http://www.w3.org/2000/svg">
<path d="M13.7792 8.53125C15.4619 8.53125 16.826 7.16712 16.826 5.48438C16.826 3.80163 15.4619 2.4375 13.7792 2.4375C12.0964 2.4375 10.7323 3.80163 10.7323 5.48438C10.7323 7.16712 12.0964 8.53125 13.7792 8.53125Z" fill="#DE904C"/>
<path d="M13.7792 8.53125C15.4619 8.53125 16.826 7.16712 16.826 5.48438C16.826 3.80163 15.4619 2.4375 13.7792 2.4375C12.0964 2.4375 10.7323 3.80163 10.7323 5.48438C10.7323 7.16712 12.0964 8.53125 13.7792 8.53125Z" fill="url(#paint0_radial_37_22)"/>
<path d="M13.7792 8.53125C15.4619 8.53125 16.826 7.16712 16.826 5.48438C16.826 3.80163 15.4619 2.4375 13.7792 2.4375C12.0964 2.4375 10.7323 3.80163 10.7323 5.48438C10.7323 7.16712 12.0964 8.53125 13.7792 8.53125Z" fill="url(#paint1_radial_37_22)"/>
<path d="M13.7792 8.53125C15.4619 8.53125 16.826 7.16712 16.826 5.48438C16.826 3.80163 15.4619 2.4375 13.7792 2.4375C12.0964 2.4375 10.7323 3.80163 10.7323 5.48438C10.7323 7.16712 12.0964 8.53125 13.7792 8.53125Z" fill="url(#paint2_radial_37_22)"/>
<path d="M25.2428 8.53125C26.9255 8.53125 28.2897 7.16712 28.2897 5.48438C28.2897 3.80163 26.9255 2.4375 25.2428 2.4375C23.5601 2.4375 22.1959 3.80163 22.1959 5.48438C22.1959 7.16712 23.5601 8.53125 25.2428 8.53125Z" fill="#D68640"/>
<path d="M25.2428 8.53125C26.9255 8.53125 28.2897 7.16712 28.2897 5.48438C28.2897 3.80163 26.9255 2.4375 25.2428 2.4375C23.5601 2.4375 22.1959 3.80163 22.1959 5.48438C22.1959 7.16712 23.5601 8.53125 25.2428 8.53125Z" fill="url(#paint3_radial_37_22)"/>
<path d="M25.2428 8.53125C26.9255 8.53125 28.2897 7.16712 28.2897 5.48438C28.2897 3.80163 26.9255 2.4375 25.2428 2.4375C23.5601 2.4375 22.1959 3.80163 22.1959 5.48438C22.1959 7.16712 23.5601 8.53125 25.2428 8.53125Z" fill="url(#paint4_radial_37_22)"/>
<g filter="url(#filter0_f_37_22)">
<path d="M25.3098 8.07544C26.7408 8.07544 27.9009 6.91538 27.9009 5.48437C27.9009 4.05337 26.7408 2.89331 25.3098 2.89331C23.8788 2.89331 22.7188 4.05337 22.7188 5.48437C22.7188 6.91538 23.8788 8.07544 25.3098 8.07544Z" stroke="url(#paint5_linear_37_22)" stroke-width="0.3"/>
</g>
<path d="M13.7792 7.54162C14.8683 7.54162 15.7511 6.65876 15.7511 5.56969C15.7511 4.48061 14.8683 3.59775 13.7792 3.59775C12.6901 3.59775 11.8073 4.48061 11.8073 5.56969C11.8073 6.65876 12.6901 7.54162 13.7792 7.54162Z" fill="url(#paint6_radial_37_22)"/>
<path d="M25.2428 7.54162C26.3319 7.54162 27.2147 6.65876 27.2147 5.56969C27.2147 4.48061 26.3319 3.59775 25.2428 3.59775C24.1537 3.59775 23.2709 4.48061 23.2709 5.56969C23.2709 6.65876 24.1537 7.54162 25.2428 7.54162Z" fill="#F9BF76"/>
<path d="M25.2428 7.54162C26.3319 7.54162 27.2147 6.65876 27.2147 5.56969C27.2147 4.48061 26.3319 3.59775 25.2428 3.59775C24.1537 3.59775 23.2709 4.48061 23.2709 5.56969C23.2709 6.65876 24.1537 7.54162 25.2428 7.54162Z" fill="url(#paint7_radial_37_22)"/>
<g filter="url(#filter1_i_37_22)">
<path d="M34.7066 22.5789L26.3835 17.5007C24.6597 16.4489 22.4097 16.9937 21.358 18.7175C20.3062 20.4413 20.851 22.6913 22.5748 23.743L30.8979 28.8213C32.6217 29.873 34.8717 29.3282 35.9234 27.6044C36.9751 25.8807 36.4304 23.6307 34.7066 22.5789Z" fill="#DE773D"/>
<path d="M34.7066 22.5789L26.3835 17.5007C24.6597 16.4489 22.4097 16.9937 21.358 18.7175C20.3062 20.4413 20.851 22.6913 22.5748 23.743L30.8979 28.8213C32.6217 29.873 34.8717 29.3282 35.9234 27.6044C36.9751 25.8807 36.4304 23.6307 34.7066 22.5789Z" fill="url(#paint8_radial_37_22)"/>
<path d="M34.7066 22.5789L26.3835 17.5007C24.6597 16.4489 22.4097 16.9937 21.358 18.7175C20.3062 20.4413 20.851 22.6913 22.5748 23.743L30.8979 28.8213C32.6217 29.873 34.8717 29.3282 35.9234 27.6044C36.9751 25.8807 36.4304 23.6307 34.7066 22.5789Z" fill="url(#paint9_linear_37_22)"/>
<path d="M34.7066 22.5789L26.3835 17.5007C24.6597 16.4489 22.4097 16.9937 21.358 18.7175C20.3062 20.4413 20.851 22.6913 22.5748 23.743L30.8979 28.8213C32.6217 29.873 34.8717 29.3282 35.9234 27.6044C36.9751 25.8807 36.4304 23.6307 34.7066 22.5789Z" fill="url(#paint10_radial_37_22)"/>
<path d="M34.7066 22.5789L26.3835 17.5007C24.6597 16.4489 22.4097 16.9937 21.358 18.7175C20.3062 20.4413 20.851 22.6913 22.5748 23.743L30.8979 28.8213C32.6217 29.873 34.8717 29.3282 35.9234 27.6044C36.9751 25.8807 36.4304 23.6307 34.7066 22.5789Z" fill="url(#paint11_radial_37_22)"/>
</g>
<g filter="url(#filter2_i_37_22)">
<path d="M12.7826 17.5573L4.33889 22.4323C2.59013 23.442 1.99096 25.6781 3.00061 27.4268C4.01026 29.1756 6.24638 29.7748 7.99514 28.7651L16.4389 23.8901C18.1876 22.8805 18.7868 20.6443 17.7772 18.8956C16.7675 17.1468 14.5314 16.5477 12.7826 17.5573Z" fill="#D77940"/>
<path d="M12.7826 17.5573L4.33889 22.4323C2.59013 23.442 1.99096 25.6781 3.00061 27.4268C4.01026 29.1756 6.24638 29.7748 7.99514 28.7651L16.4389 23.8901C18.1876 22.8805 18.7868 20.6443 17.7772 18.8956C16.7675 17.1468 14.5314 16.5477 12.7826 17.5573Z" fill="url(#paint12_linear_37_22)"/>
<path d="M12.7826 17.5573L4.33889 22.4323C2.59013 23.442 1.99096 25.6781 3.00061 27.4268C4.01026 29.1756 6.24638 29.7748 7.99514 28.7651L16.4389 23.8901C18.1876 22.8805 18.7868 20.6443 17.7772 18.8956C16.7675 17.1468 14.5314 16.5477 12.7826 17.5573Z" fill="url(#paint13_radial_37_22)"/>
<path d="M12.7826 17.5573L4.33889 22.4323C2.59013 23.442 1.99096 25.6781 3.00061 27.4268C4.01026 29.1756 6.24638 29.7748 7.99514 28.7651L16.4389 23.8901C18.1876 22.8805 18.7868 20.6443 17.7772 18.8956C16.7675 17.1468 14.5314 16.5477 12.7826 17.5573Z" fill="url(#paint14_radial_37_22)"/>
<path d="M12.7826 17.5573L4.33889 22.4323C2.59013 23.442 1.99096 25.6781 3.00061 27.4268C4.01026 29.1756 6.24638 29.7748 7.99514 28.7651L16.4389 23.8901C18.1876 22.8805 18.7868 20.6443 17.7772 18.8956C16.7675 17.1468 14.5314 16.5477 12.7826 17.5573Z" fill="url(#paint15_radial_37_22)"/>
</g>
<g filter="url(#filter3_f_37_22)">
<path d="M26.0886 19.918L33.9349 24.7162" stroke="#FA9C66" stroke-linecap="round"/>
</g>
<path d="M19.4537 35.0963C24.8385 35.0963 29.2037 30.7311 29.2037 25.3463C29.2037 19.9616 24.8385 15.5963 19.4537 15.5963C14.069 15.5963 9.70374 19.9616 9.70374 25.3463C9.70374 30.7311 14.069 35.0963 19.4537 35.0963Z" fill="url(#paint16_linear_37_22)"/>
<path d="M19.4537 35.0963C24.8385 35.0963 29.2037 30.7311 29.2037 25.3463C29.2037 19.9616 24.8385 15.5963 19.4537 15.5963C14.069 15.5963 9.70374 19.9616 9.70374 25.3463C9.70374 30.7311 14.069 35.0963 19.4537 35.0963Z" fill="url(#paint17_radial_37_22)"/>
<path d="M19.4537 35.0963C24.8385 35.0963 29.2037 30.7311 29.2037 25.3463C29.2037 19.9616 24.8385 15.5963 19.4537 15.5963C14.069 15.5963 9.70374 19.9616 9.70374 25.3463C9.70374 30.7311 14.069 35.0963 19.4537 35.0963Z" fill="url(#paint18_radial_37_22)"/>
<path d="M19.4537 35.0963C24.8385 35.0963 29.2037 30.7311 29.2037 25.3463C29.2037 19.9616 24.8385 15.5963 19.4537 15.5963C14.069 15.5963 9.70374 19.9616 9.70374 25.3463C9.70374 30.7311 14.069 35.0963 19.4537 35.0963Z" fill="url(#paint19_radial_37_22)"/>
<path d="M19.4537 35.0963C24.8385 35.0963 29.2037 30.7311 29.2037 25.3463C29.2037 19.9616 24.8385 15.5963 19.4537 15.5963C14.069 15.5963 9.70374 19.9616 9.70374 25.3463C9.70374 30.7311 14.069 35.0963 19.4537 35.0963Z" fill="url(#paint20_radial_37_22)"/>
<path d="M19.4537 35.0963C24.8385 35.0963 29.2037 30.7311 29.2037 25.3463C29.2037 19.9616 24.8385 15.5963 19.4537 15.5963C14.069 15.5963 9.70374 19.9616 9.70374 25.3463C9.70374 30.7311 14.069 35.0963 19.4537 35.0963Z" fill="url(#paint21_radial_37_22)"/>
<path d="M19.4537 35.0963C24.8385 35.0963 29.2037 30.7311 29.2037 25.3463C29.2037 19.9616 24.8385 15.5963 19.4537 15.5963C14.069 15.5963 9.70374 19.9616 9.70374 25.3463C9.70374 30.7311 14.069 35.0963 19.4537 35.0963Z" fill="url(#paint22_radial_37_22)"/>
<path d="M19.4537 35.0963C24.8385 35.0963 29.2037 30.7311 29.2037 25.3463C29.2037 19.9616 24.8385 15.5963 19.4537 15.5963C14.069 15.5963 9.70374 19.9616 9.70374 25.3463C9.70374 30.7311 14.069 35.0963 19.4537 35.0963Z" fill="url(#paint23_radial_37_22)"/>
<path d="M19.4537 35.0963C24.8385 35.0963 29.2037 30.7311 29.2037 25.3463C29.2037 19.9616 24.8385 15.5963 19.4537 15.5963C14.069 15.5963 9.70374 19.9616 9.70374 25.3463C9.70374 30.7311 14.069 35.0963 19.4537 35.0963Z" fill="url(#paint24_radial_37_22)"/>
<path d="M19.4537 32.6588C22.8192 32.6588 25.5475 29.9306 25.5475 26.5651C25.5475 23.1996 22.8192 20.4713 19.4537 20.4713C16.0883 20.4713 13.36 23.1996 13.36 26.5651C13.36 29.9306 16.0883 32.6588 19.4537 32.6588Z" fill="url(#paint25_linear_37_22)"/>
<path d="M19.4537 32.6588C22.8192 32.6588 25.5475 29.9306 25.5475 26.5651C25.5475 23.1996 22.8192 20.4713 19.4537 20.4713C16.0883 20.4713 13.36 23.1996 13.36 26.5651C13.36 29.9306 16.0883 32.6588 19.4537 32.6588Z" fill="url(#paint26_radial_37_22)"/>
<path d="M19.4537 32.6588C22.8192 32.6588 25.5475 29.9306 25.5475 26.5651C25.5475 23.1996 22.8192 20.4713 19.4537 20.4713C16.0883 20.4713 13.36 23.1996 13.36 26.5651C13.36 29.9306 16.0883 32.6588 19.4537 32.6588Z" fill="url(#paint27_radial_37_22)"/>
<path d="M19.4537 32.6588C22.8192 32.6588 25.5475 29.9306 25.5475 26.5651C25.5475 23.1996 22.8192 20.4713 19.4537 20.4713C16.0883 20.4713 13.36 23.1996 13.36 26.5651C13.36 29.9306 16.0883 32.6588 19.4537 32.6588Z" fill="url(#paint28_radial_37_22)"/>
<g filter="url(#filter4_i_37_22)">
<path d="M29.0684 12.3898C29.0684 17.8352 24.7638 19.684 19.4525 19.684C14.1436 19.684 9.83899 17.8352 9.83899 12.3898C9.83899 6.94566 14.7408 3.04688 19.4537 3.04688C24.3116 3.04688 29.0696 6.94566 29.0696 12.3898H29.0684Z" fill="url(#paint29_linear_37_22)"/>
<path d="M29.0684 12.3898C29.0684 17.8352 24.7638 19.684 19.4525 19.684C14.1436 19.684 9.83899 17.8352 9.83899 12.3898C9.83899 6.94566 14.7408 3.04688 19.4537 3.04688C24.3116 3.04688 29.0696 6.94566 29.0696 12.3898H29.0684Z" fill="url(#paint30_radial_37_22)"/>
<path d="M29.0684 12.3898C29.0684 17.8352 24.7638 19.684 19.4525 19.684C14.1436 19.684 9.83899 17.8352 9.83899 12.3898C9.83899 6.94566 14.7408 3.04688 19.4537 3.04688C24.3116 3.04688 29.0696 6.94566 29.0696 12.3898H29.0684Z" fill="url(#paint31_radial_37_22)"/>
<path d="M29.0684 12.3898C29.0684 17.8352 24.7638 19.684 19.4525 19.684C14.1436 19.684 9.83899 17.8352 9.83899 12.3898C9.83899 6.94566 14.7408 3.04688 19.4537 3.04688C24.3116 3.04688 29.0696 6.94566 29.0696 12.3898H29.0684Z" fill="url(#paint32_radial_37_22)"/>
</g>
<path d="M16.4069 10.8737C16.7434 10.8737 17.0162 10.6009 17.0162 10.2643C17.0162 9.92776 16.7434 9.65494 16.4069 9.65494C16.0703 9.65494 15.7975 9.92776 15.7975 10.2643C15.7975 10.6009 16.0703 10.8737 16.4069 10.8737Z" fill="url(#paint33_radial_37_22)"/>
<path d="M22.5006 10.8737C22.8372 10.8737 23.11 10.6009 23.11 10.2643C23.11 9.92776 22.8372 9.65494 22.5006 9.65494C22.1641 9.65494 21.8912 9.92776 21.8912 10.2643C21.8912 10.6009 22.1641 10.8737 22.5006 10.8737Z" fill="url(#paint34_radial_37_22)"/>
<g filter="url(#filter5_i_37_22)">
<path d="M19.4537 11.1016C18.8772 11.1016 17.6183 11.1016 16.3885 11.9011C15.3526 12.5751 15.2551 14.1862 15.901 15.5756C16.5445 16.9662 17.6378 17.8425 19.4537 17.8425C21.2696 17.8425 22.3628 16.9662 23.0063 15.5756C23.6511 14.1862 23.5548 12.5751 22.5188 11.9011C21.2879 11.1016 20.0302 11.1016 19.4537 11.1016Z" fill="url(#paint35_radial_37_22)"/>
<path d="M19.4537 11.1016C18.8772 11.1016 17.6183 11.1016 16.3885 11.9011C15.3526 12.5751 15.2551 14.1862 15.901 15.5756C16.5445 16.9662 17.6378 17.8425 19.4537 17.8425C21.2696 17.8425 22.3628 16.9662 23.0063 15.5756C23.6511 14.1862 23.5548 12.5751 22.5188 11.9011C21.2879 11.1016 20.0302 11.1016 19.4537 11.1016Z" fill="url(#paint36_radial_37_22)"/>
</g>
<g filter="url(#filter6_ii_37_22)">
<path d="M6.69857 32.6409C5.54793 30.5852 6.28163 27.9859 8.33736 26.8352C10.3931 25.6846 12.9924 26.4183 14.143 28.474L15.0359 30.0692C16.1865 32.125 15.4528 34.7242 13.3971 35.8749C11.3414 37.0255 8.74212 36.2918 7.59147 34.2361L6.69857 32.6409Z" fill="url(#paint37_linear_37_22)"/>
<path d="M6.69857 32.6409C5.54793 30.5852 6.28163 27.9859 8.33736 26.8352C10.3931 25.6846 12.9924 26.4183 14.143 28.474L15.0359 30.0692C16.1865 32.125 15.4528 34.7242 13.3971 35.8749C11.3414 37.0255 8.74212 36.2918 7.59147 34.2361L6.69857 32.6409Z" fill="url(#paint38_radial_37_22)"/>
</g>
<g filter="url(#filter7_ii_37_22)">
<path d="M32.2126 32.6395C33.3632 30.5837 32.6295 27.9845 30.5738 26.8338C28.5181 25.6832 25.9188 26.4169 24.7681 28.4726L23.8752 30.0678C22.7246 32.1236 23.4583 34.7228 25.514 35.8735C27.5697 37.0241 30.169 36.2904 31.3197 34.2347L32.2126 32.6395Z" fill="url(#paint39_linear_37_22)"/>
</g>
<path d="M32.2126 32.6395C33.3632 30.5837 32.6295 27.9845 30.5738 26.8338C28.5181 25.6832 25.9188 26.4169 24.7681 28.4726L23.8752 30.0678C22.7246 32.1236 23.4583 34.7228 25.514 35.8735C27.5697 37.0241 30.169 36.2904 31.3197 34.2347L32.2126 32.6395Z" fill="url(#paint40_radial_37_22)"/>
<path d="M8.32659 31.7728C7.66908 30.5981 8.08834 29.1128 9.26304 28.4553C10.4377 27.7978 11.923 28.217 12.5805 29.3917L13.4734 30.987C14.131 32.1617 13.7117 33.647 12.537 34.3045C11.3623 34.962 9.877 34.5427 9.21949 33.368L8.32659 31.7728Z" fill="url(#paint41_linear_37_22)"/>
<path d="M30.5834 31.7725C31.241 30.5978 30.8217 29.1125 29.647 28.455C28.4723 27.7975 26.987 28.2168 26.3295 29.3915L25.4366 30.9867C24.7791 32.1614 25.1983 33.6467 26.373 34.3042C27.5477 34.9617 29.033 34.5425 29.6905 33.3678L30.5834 31.7725Z" fill="url(#paint42_linear_37_22)"/>
<g filter="url(#filter8_f_37_22)">
<path d="M18.0814 12.3386C17.7243 12.3386 17.4744 12.6713 17.6597 12.9772C17.8669 13.3197 18.1984 13.7061 18.692 13.9839C18.7606 14.0227 18.838 14.0431 18.9168 14.0431C18.9956 14.0431 19.0731 14.0227 19.1417 13.9839C19.6341 13.7061 19.9644 13.3197 20.1728 12.9772C20.358 12.6713 20.1082 12.3386 19.7511 12.3386H18.0814V12.3386Z" fill="#D18A74"/>
</g>
<path d="M18.5408 11.9681C18.1508 11.9681 17.8766 12.3313 18.0801 12.6652C18.3068 13.0406 18.6688 13.4623 19.2075 13.7658C19.2826 13.8083 19.3674 13.8306 19.4537 13.8306C19.54 13.8306 19.6248 13.8083 19.6999 13.7658C20.2373 13.4611 20.5993 13.0406 20.8272 12.6652C21.0295 12.3313 20.7565 11.9669 20.3665 11.9669H18.5408V11.9681Z" fill="url(#paint43_linear_37_22)"/>
<path d="M18.5408 11.9681C18.1508 11.9681 17.8766 12.3313 18.0801 12.6652C18.3068 13.0406 18.6688 13.4623 19.2075 13.7658C19.2826 13.8083 19.3674 13.8306 19.4537 13.8306C19.54 13.8306 19.6248 13.8083 19.6999 13.7658C20.2373 13.4611 20.5993 13.0406 20.8272 12.6652C21.0295 12.3313 20.7565 11.9669 20.3665 11.9669H18.5408V11.9681Z" fill="url(#paint44_radial_37_22)"/>
<g filter="url(#filter9_f_37_22)">
<path d="M11.7098 27.4913C11.9341 27.5937 12.4935 27.9338 12.9408 28.4712C13.3893 29.0075 14.1352 30.3359 14.452 30.9331" stroke="#FA9E75" stroke-width="0.5" stroke-linecap="round"/>
</g>
<defs>
<filter id="filter0_f_37_22" x="22.2687" y="2.44332" width="6.08218" height="6.08212" filterUnits="userSpaceOnUse" color-interpolation-filters="sRGB">
<feFlood flood-opacity="0" result="BackgroundImageFix"/>
<feBlend mode="normal" in="SourceGraphic" in2="BackgroundImageFix" result="shape"/>
<feGaussianBlur stdDeviation="0.15" result="effect1_foregroundBlur_37_22"/>
</filter>
<filter id="filter1_i_37_22" x="20.8224" y="16.8151" width="15.7866" height="12.5418" filterUnits="userSpaceOnUse" color-interpolation-filters="sRGB">
<feFlood flood-opacity="0" result="BackgroundImageFix"/>
<feBlend mode="normal" in="SourceGraphic" in2="BackgroundImageFix" result="shape"/>
<feColorMatrix in="SourceAlpha" type="matrix" values="0 0 0 0 0 0 0 0 0 0 0 0 0 0 0 0 0 0 127 0" result="hardAlpha"/>
<feOffset dx="0.15" dy="-0.15"/>
<feGaussianBlur stdDeviation="0.5"/>
<feComposite in2="hardAlpha" operator="arithmetic" k2="-1" k3="1"/>
<feColorMatrix type="matrix" values="0 0 0 0 0.580392 0 0 0 0 0.25098 0 0 0 0 0.309804 0 0 0 1 0"/>
<feBlend mode="normal" in2="shape" result="effect1_innerShadow_37_22"/>
</filter>
<filter id="filter2_i_37_22" x="2.01013" y="16.5669" width="16.2574" height="12.6887" filterUnits="userSpaceOnUse" color-interpolation-filters="sRGB">
<feFlood flood-opacity="0" result="BackgroundImageFix"/>
<feBlend mode="normal" in="SourceGraphic" in2="BackgroundImageFix" result="shape"/>
<feColorMatrix in="SourceAlpha" type="matrix" values="0 0 0 0 0 0 0 0 0 0 0 0 0 0 0 0 0 0 127 0" result="hardAlpha"/>
<feOffset dx="-0.5" dy="-0.5"/>
<feGaussianBlur stdDeviation="0.5"/>
<feComposite in2="hardAlpha" operator="arithmetic" k2="-1" k3="1"/>
<feColorMatrix type="matrix" values="0 0 0 0 0.709804 0 0 0 0 0.341176 0 0 0 0 0.278431 0 0 0 1 0"/>
<feBlend mode="normal" in2="shape" result="effect1_innerShadow_37_22"/>
</filter>
<filter id="filter3_f_37_22" x="23.5885" y="17.418" width="12.8466" height="9.79837" filterUnits="userSpaceOnUse" color-interpolation-filters="sRGB">
<feFlood flood-opacity="0" result="BackgroundImageFix"/>
<feBlend mode="normal" in="SourceGraphic" in2="BackgroundImageFix" result="shape"/>
<feGaussianBlur stdDeviation="1" result="effect1_foregroundBlur_37_22"/>
</filter>
<filter id="filter4_i_37_22" x="9.83899" y="3.04688" width="19.7307" height="16.8872" filterUnits="userSpaceOnUse" color-interpolation-filters="sRGB">
<feFlood flood-opacity="0" result="BackgroundImageFix"/>
<feBlend mode="normal" in="SourceGraphic" in2="BackgroundImageFix" result="shape"/>
<feColorMatrix in="SourceAlpha" type="matrix" values="0 0 0 0 0 0 0 0 0 0 0 0 0 0 0 0 0 0 127 0" result="hardAlpha"/>
<feOffset dx="0.5" dy="0.25"/>
<feGaussianBlur stdDeviation="0.75"/>
<feComposite in2="hardAlpha" operator="arithmetic" k2="-1" k3="1"/>
<feColorMatrix type="matrix" values="0 0 0 0 0.741176 0 0 0 0 0.498039 0 0 0 0 0.266667 0 0 0 1 0"/>
<feBlend mode="normal" in2="shape" result="effect1_innerShadow_37_22"/>
</filter>
<filter id="filter5_i_37_22" x="15.4949" y="11.1016" width="8.01711" height="6.84091" filterUnits="userSpaceOnUse" color-interpolation-filters="sRGB">
<feFlood flood-opacity="0" result="BackgroundImageFix"/>
<feBlend mode="normal" in="SourceGraphic" in2="BackgroundImageFix" result="shape"/>
<feColorMatrix in="SourceAlpha" type="matrix" values="0 0 0 0 0 0 0 0 0 0 0 0 0 0 0 0 0 0 127 0" result="hardAlpha"/>
<feOffset dx="0.1" dy="0.1"/>
<feGaussianBlur stdDeviation="0.2"/>
<feComposite in2="hardAlpha" operator="arithmetic" k2="-1" k3="1"/>
<feColorMatrix type="matrix" values="0 0 0 0 0.823529 0 0 0 0 0.568627 0 0 0 0 0.384314 0 0 0 1 0"/>
<feBlend mode="normal" in2="shape" result="effect1_innerShadow_37_22"/>
</filter>
<filter id="filter6_ii_37_22" x="6.00442" y="25.9911" width="9.72566" height="10.728" filterUnits="userSpaceOnUse" color-interpolation-filters="sRGB">
<feFlood flood-opacity="0" result="BackgroundImageFix"/>
<feBlend mode="normal" in="SourceGraphic" in2="BackgroundImageFix" result="shape"/>
<feColorMatrix in="SourceAlpha" type="matrix" values="0 0 0 0 0 0 0 0 0 0 0 0 0 0 0 0 0 0 127 0" result="hardAlpha"/>
<feOffset dx="0.15" dy="0.3"/>
<feGaussianBlur stdDeviation="0.3"/>
<feComposite in2="hardAlpha" operator="arithmetic" k2="-1" k3="1"/>
<feColorMatrix type="matrix" values="0 0 0 0 0.807843 0 0 0 0 0.407843 0 0 0 0 0.231373 0 0 0 1 0"/>
<feBlend mode="normal" in2="shape" result="effect1_innerShadow_37_22"/>
<feColorMatrix in="SourceAlpha" type="matrix" values="0 0 0 0 0 0 0 0 0 0 0 0 0 0 0 0 0 0 127 0" result="hardAlpha"/>
<feOffset dx="-0.15" dy="-0.3"/>
<feGaussianBlur stdDeviation="0.3"/>
<feComposite in2="hardAlpha" operator="arithmetic" k2="-1" k3="1"/>
<feColorMatrix type="matrix" values="0 0 0 0 0.72549 0 0 0 0 0.4 0 0 0 0 0.341176 0 0 0 1 0"/>
<feBlend mode="normal" in2="effect1_innerShadow_37_22" result="effect2_innerShadow_37_22"/>
</filter>
<filter id="filter7_ii_37_22" x="23.1811" y="25.9896" width="9.72566" height="10.728" filterUnits="userSpaceOnUse" color-interpolation-filters="sRGB">
<feFlood flood-opacity="0" result="BackgroundImageFix"/>
<feBlend mode="normal" in="SourceGraphic" in2="BackgroundImageFix" result="shape"/>
<feColorMatrix in="SourceAlpha" type="matrix" values="0 0 0 0 0 0 0 0 0 0 0 0 0 0 0 0 0 0 127 0" result="hardAlpha"/>
<feOffset dx="-0.15" dy="-0.3"/>
<feGaussianBlur stdDeviation="0.3"/>
<feComposite in2="hardAlpha" operator="arithmetic" k2="-1" k3="1"/>
<feColorMatrix type="matrix" values="0 0 0 0 0.682353 0 0 0 0 0.356863 0 0 0 0 0.32549 0 0 0 1 0"/>
<feBlend mode="normal" in2="shape" result="effect1_innerShadow_37_22"/>
<feColorMatrix in="SourceAlpha" type="matrix" values="0 0 0 0 0 0 0 0 0 0 0 0 0 0 0 0 0 0 127 0" result="hardAlpha"/>
<feOffset dx="0.15" dy="0.3"/>
<feGaussianBlur stdDeviation="0.3"/>
<feComposite in2="hardAlpha" operator="arithmetic" k2="-1" k3="1"/>
<feColorMatrix type="matrix" values="0 0 0 0 0.815686 0 0 0 0 0.384314 0 0 0 0 0.176471 0 0 0 1 0"/>
<feBlend mode="normal" in2="effect1_innerShadow_37_22" result="effect2_innerShadow_37_22"/>
</filter>
<filter id="filter8_f_37_22" x="17.0969" y="11.8386" width="3.63867" height="2.70445" filterUnits="userSpaceOnUse" color-interpolation-filters="sRGB">
<feFlood flood-opacity="0" result="BackgroundImageFix"/>
<feBlend mode="normal" in="SourceGraphic" in2="BackgroundImageFix" result="shape"/>
<feGaussianBlur stdDeviation="0.25" result="effect1_foregroundBlur_37_22"/>
</filter>
<filter id="filter9_f_37_22" x="10.7098" y="26.4913" width="4.74219" height="5.44186" filterUnits="userSpaceOnUse" color-interpolation-filters="sRGB">
<feFlood flood-opacity="0" result="BackgroundImageFix"/>
<feBlend mode="normal" in="SourceGraphic" in2="BackgroundImageFix" result="shape"/>
<feGaussianBlur stdDeviation="0.375" result="effect1_foregroundBlur_37_22"/>
</filter>
<radialGradient id="paint0_radial_37_22" cx="0" cy="0" r="1" gradientUnits="userSpaceOnUse" gradientTransform="translate(16.4531 3.88416) rotate(-139.844) scale(3.18923 0.958248)">
<stop stop-color="#F4A161"/>
<stop offset="1" stop-color="#F4A161" stop-opacity="0"/>
</radialGradient>
<radialGradient id="paint1_radial_37_22" cx="0" cy="0" r="1" gradientUnits="userSpaceOnUse" gradientTransform="translate(13.7782 5.48408) rotate(99.561) scale(2.58665)">
<stop offset="0.713" stop-color="#CE7032"/>
<stop offset="1" stop-color="#CE7032" stop-opacity="0"/>
</radialGradient>
<radialGradient id="paint2_radial_37_22" cx="0" cy="0" r="1" gradientUnits="userSpaceOnUse" gradientTransform="translate(13.7787 5.48553) rotate(-135) scale(3.22654 3.96546)">
<stop offset="0.841" stop-color="#C17B3B" stop-opacity="0"/>
<stop offset="0.979" stop-color="#C17B3B"/>
</radialGradient>
<radialGradient id="paint3_radial_37_22" cx="0" cy="0" r="1" gradientUnits="userSpaceOnUse" gradientTransform="translate(25.6705 5.48447) rotate(99.51) scale(2.58626)">
<stop offset="0.659" stop-color="#DC692A"/>
<stop offset="1" stop-color="#DC692A" stop-opacity="0"/>
</radialGradient>
<radialGradient id="paint4_radial_37_22" cx="0" cy="0" r="1" gradientUnits="userSpaceOnUse" gradientTransform="translate(26.0604 5.58823) rotate(-143.383) scale(3.87909 3.18732)">
<stop offset="0.828" stop-color="#B56E32" stop-opacity="0"/>
<stop offset="0.924" stop-color="#B56E32"/>
</radialGradient>
<linearGradient id="paint5_linear_37_22" x1="27.8997" y1="4.37897" x2="27.0124" y2="4.836" gradientUnits="userSpaceOnUse">
<stop stop-color="#FFAF7E"/>
<stop offset="1" stop-color="#FFAF7E" stop-opacity="0"/>
</linearGradient>
<radialGradient id="paint6_radial_37_22" cx="0" cy="0" r="1" gradientUnits="userSpaceOnUse" gradientTransform="translate(12.6445 4.24612) rotate(49.548) scale(2.37741 4.39436)">
<stop stop-color="#FECC85"/>
<stop offset="1" stop-color="#DCA86A"/>
</radialGradient>
<radialGradient id="paint7_radial_37_22" cx="0" cy="0" r="1" gradientUnits="userSpaceOnUse" gradientTransform="translate(24.5477 5.21713) rotate(6.915) scale(2.93492)">
<stop offset="0.618" stop-color="#E8A869" stop-opacity="0"/>
<stop offset="0.906" stop-color="#E8A869"/>
</radialGradient>
<radialGradient id="paint8_radial_37_22" cx="0" cy="0" r="1" gradientUnits="userSpaceOnUse" gradientTransform="translate(28.6407 29.0202) rotate(-52.9893) scale(6.2004 8.69938)">
<stop offset="0.175" stop-color="#983C50"/>
<stop offset="1" stop-color="#983C50" stop-opacity="0"/>
</radialGradient>
<linearGradient id="paint9_linear_37_22" x1="30.6597" y1="19.8799" x2="29.2878" y2="21.6698" gradientUnits="userSpaceOnUse">
<stop stop-color="#EB9251"/>
<stop offset="1" stop-color="#EB9251" stop-opacity="0"/>
</linearGradient>
<radialGradient id="paint10_radial_37_22" cx="0" cy="0" r="1" gradientUnits="userSpaceOnUse" gradientTransform="translate(35.7246 24.4507) rotate(126.87) scale(3.04688 2.00721)">
<stop stop-color="#FFB075"/>
<stop offset="1" stop-color="#FFB075" stop-opacity="0"/>
</radialGradient>
<radialGradient id="paint11_radial_37_22" cx="0" cy="0" r="1" gradientUnits="userSpaceOnUse" gradientTransform="translate(25.2137 23.6884) rotate(-14.599) scale(4.23084 5.71374)">
<stop offset="0.846" stop-color="#FFAA6F"/>
<stop offset="1" stop-color="#FFAA6F" stop-opacity="0"/>
</radialGradient>
<linearGradient id="paint12_linear_37_22" x1="8.13249" y1="19.2457" x2="9.52604" y2="21.7398" gradientUnits="userSpaceOnUse">
<stop offset="0.203" stop-color="#A2643B"/>
<stop offset="1" stop-color="#A2643B" stop-opacity="0"/>
</linearGradient>
<radialGradient id="paint13_radial_37_22" cx="0" cy="0" r="1" gradientUnits="userSpaceOnUse" gradientTransform="translate(11.3396 25.9507) rotate(123.857) scale(6.16201 4.41894)">
<stop offset="0.155" stop-color="#BB5124"/>
<stop offset="1" stop-color="#BB5124" stop-opacity="0"/>
</radialGradient>
<radialGradient id="paint14_radial_37_22" cx="0" cy="0" r="1" gradientUnits="userSpaceOnUse" gradientTransform="translate(4.34461 25.8206) rotate(-1.84753) scale(2.00902 1.91895)">
<stop stop-color="#E38B4D"/>
<stop offset="1" stop-color="#E38B4D" stop-opacity="0"/>
</radialGradient>
<radialGradient id="paint15_radial_37_22" cx="0" cy="0" r="1" gradientUnits="userSpaceOnUse" gradientTransform="translate(12.0844 24.282) rotate(-170.952) scale(2.57439 5.118)">
<stop offset="0.923" stop-color="#D77C46"/>
<stop offset="1" stop-color="#D77C46" stop-opacity="0"/>
</radialGradient>
<linearGradient id="paint16_linear_37_22" x1="22.0277" y1="33.7874" x2="22.0277" y2="18.3714" gradientUnits="userSpaceOnUse">
<stop stop-color="#CA6645"/>
<stop offset="1" stop-color="#D57E40"/>
</linearGradient>
<radialGradient id="paint17_radial_37_22" cx="0" cy="0" r="1" gradientUnits="userSpaceOnUse" gradientTransform="translate(27.857 20.1203) rotate(128.517) scale(12.1695 7.93089)">
<stop stop-color="#FFA66F"/>
<stop offset="1" stop-color="#FFA66F" stop-opacity="0"/>
</radialGradient>
<radialGradient id="paint18_radial_37_22" cx="0" cy="0" r="1" gradientUnits="userSpaceOnUse" gradientTransform="translate(19.4537 17.2697) rotate(90) scale(4.72847 8.37307)">
<stop offset="0.466" stop-color="#B54322"/>
<stop offset="1" stop-color="#B54322" stop-opacity="0"/>
</radialGradient>
<radialGradient id="paint19_radial_37_22" cx="0" cy="0" r="1" gradientUnits="userSpaceOnUse" gradientTransform="translate(20.0846 26.8572) rotate(-125.505) scale(13.0492 14.3597)">
<stop offset="0.715" stop-color="#A3633D" stop-opacity="0"/>
<stop offset="0.924" stop-color="#A3633D"/>
</radialGradient>
<radialGradient id="paint20_radial_37_22" cx="0" cy="0" r="1" gradientUnits="userSpaceOnUse" gradientTransform="translate(10.2375 27.6985) rotate(-8.13004) scale(3.20613 8.24434)">
<stop stop-color="#C7733E"/>
<stop offset="1" stop-color="#C7733E" stop-opacity="0"/>
</radialGradient>
<radialGradient id="paint21_radial_37_22" cx="0" cy="0" r="1" gradientUnits="userSpaceOnUse" gradientTransform="translate(14.4166 33.0111) rotate(55.438) scale(3.5395 2.76913)">
<stop offset="0.255" stop-color="#A03434"/>
<stop offset="1" stop-color="#A03434" stop-opacity="0"/>
</radialGradient>
<radialGradient id="paint22_radial_37_22" cx="0" cy="0" r="1" gradientUnits="userSpaceOnUse" gradientTransform="translate(24.9426 32.6857) rotate(136.5) scale(4.37558 2.52303)">
<stop offset="0.317" stop-color="#A14750"/>
<stop offset="1" stop-color="#A14750" stop-opacity="0"/>
</radialGradient>
<radialGradient id="paint23_radial_37_22" cx="0" cy="0" r="1" gradientUnits="userSpaceOnUse" gradientTransform="translate(19.4537 21.0917) rotate(90) scale(14.0044)">
<stop offset="0.839" stop-color="#AC4F52" stop-opacity="0"/>
<stop offset="1" stop-color="#AC4F52"/>
</radialGradient>
<radialGradient id="paint24_radial_37_22" cx="0" cy="0" r="1" gradientUnits="userSpaceOnUse" gradientTransform="translate(26.7553 28.7991) rotate(-63.1835) scale(3.30234 2.37709)">
<stop offset="0.539" stop-color="#DC6A27"/>
<stop offset="1" stop-color="#DC6A27" stop-opacity="0"/>
</radialGradient>
<linearGradient id="paint25_linear_37_22" x1="19.4537" y1="20.1203" x2="19.4537" y2="30.0958" gradientUnits="userSpaceOnUse">
<stop stop-color="#E6A04E"/>
<stop offset="1" stop-color="#FFC286"/>
</linearGradient>
<radialGradient id="paint26_radial_37_22" cx="0" cy="0" r="1" gradientUnits="userSpaceOnUse" gradientTransform="translate(19.4537 22.971) rotate(90) scale(10.4286)">
<stop offset="0.588" stop-color="#E2A48D" stop-opacity="0"/>
<stop offset="1" stop-color="#E2A48D"/>
</radialGradient>
<radialGradient id="paint27_radial_37_22" cx="0" cy="0" r="1" gradientUnits="userSpaceOnUse" gradientTransform="translate(26.496 22.9046) rotate(151.504) scale(5.15916)">
<stop stop-color="#FFD992"/>
<stop offset="1" stop-color="#FFD992" stop-opacity="0"/>
</radialGradient>
<radialGradient id="paint28_radial_37_22" cx="0" cy="0" r="1" gradientUnits="userSpaceOnUse" gradientTransform="translate(12.7969 30.225) rotate(-28.2174) scale(3.01389 5.12938)">
<stop offset="0.546" stop-color="#BC8A66"/>
<stop offset="1" stop-color="#BC8A66" stop-opacity="0"/>
</radialGradient>
<linearGradient id="paint29_linear_37_22" x1="19.4537" y1="4.73972" x2="19.4537" y2="19.684" gradientUnits="userSpaceOnUse">
<stop stop-color="#EC9D55"/>
<stop offset="1" stop-color="#DE7944"/>
</linearGradient>
<radialGradient id="paint30_radial_37_22" cx="0" cy="0" r="1" gradientUnits="userSpaceOnUse" gradientTransform="translate(25.393 9.32917) rotate(118.974) scale(7.74121 9.20931)">
<stop stop-color="#FFBE88"/>
<stop offset="1" stop-color="#FFBE88" stop-opacity="0"/>
</radialGradient>
<radialGradient id="paint31_radial_37_22" cx="0" cy="0" r="1" gradientUnits="userSpaceOnUse" gradientTransform="translate(18.8461 6.69884) rotate(81.87) scale(14.6433 16.9259)">
<stop offset="0.66" stop-color="#BA5137" stop-opacity="0"/>
<stop offset="1" stop-color="#BA5137"/>
</radialGradient>
<radialGradient id="paint32_radial_37_22" cx="0" cy="0" r="1" gradientUnits="userSpaceOnUse" gradientTransform="translate(18.5153 15.8754) rotate(112.62) scale(5.2976 4.40422)">
<stop offset="0.345" stop-color="#CE6D54"/>
<stop offset="1" stop-color="#CE6D54" stop-opacity="0"/>
</radialGradient>
<radialGradient id="paint33_radial_37_22" cx="0" cy="0" r="1" gradientUnits="userSpaceOnUse" gradientTransform="translate(17.0165 9.96028) rotate(142.751) scale(0.970856)">
<stop stop-color="#635556"/>
<stop offset="1" stop-color="#452B30"/>
</radialGradient>
<radialGradient id="paint34_radial_37_22" cx="0" cy="0" r="1" gradientUnits="userSpaceOnUse" gradientTransform="translate(23.0159 9.97265) rotate(142.561) scale(0.563916)">
<stop stop-color="#635556"/>
<stop offset="1" stop-color="#452B30"/>
</radialGradient>
<radialGradient id="paint35_radial_37_22" cx="0" cy="0" r="1" gradientUnits="userSpaceOnUse" gradientTransform="translate(19.4537 12.0047) rotate(90) scale(7.13138 13.1391)">
<stop offset="0.204" stop-color="#FFBD96"/>
<stop offset="0.965" stop-color="#D27067"/>
</radialGradient>
<radialGradient id="paint36_radial_37_22" cx="0" cy="0" r="1" gradientUnits="userSpaceOnUse" gradientTransform="translate(23.4118 12.21) rotate(146.39) scale(2.57667 3.45644)">
<stop stop-color="#FFDFAF"/>
<stop offset="1" stop-color="#FFDFAF" stop-opacity="0"/>
</radialGradient>
<linearGradient id="paint37_linear_37_22" x1="8.3027" y1="26.5837" x2="13.3301" y2="36.1819" gradientUnits="userSpaceOnUse">
<stop stop-color="#E27749"/>
<stop offset="1" stop-color="#DA835D"/>
</linearGradient>
<radialGradient id="paint38_radial_37_22" cx="0" cy="0" r="1" gradientUnits="userSpaceOnUse" gradientTransform="translate(15.3207 29.3679) rotate(155.225) scale(5.60952 8.8732)">
<stop stop-color="#E68F58"/>
<stop offset="1" stop-color="#E68F58" stop-opacity="0"/>
</radialGradient>
<linearGradient id="paint39_linear_37_22" x1="30.5738" y1="26.8338" x2="25.514" y2="35.8735" gradientUnits="userSpaceOnUse">
<stop stop-color="#E17341"/>
<stop offset="1" stop-color="#D48461"/>
</linearGradient>
<radialGradient id="paint40_radial_37_22" cx="0" cy="0" r="1" gradientUnits="userSpaceOnUse" gradientTransform="translate(31.9375 28.8639) rotate(159.146) scale(1.4556 3.06397)">
<stop stop-color="#FD9C79"/>
<stop offset="1" stop-color="#FD9C79" stop-opacity="0"/>
</radialGradient>
<linearGradient id="paint41_linear_37_22" x1="9.9783" y1="29.2491" x2="12.9496" y2="34.6573" gradientUnits="userSpaceOnUse">
<stop stop-color="#FFBE7B"/>
<stop offset="1" stop-color="#FFDDA2"/>
</linearGradient>
<linearGradient id="paint42_linear_37_22" x1="28.5641" y1="30.24" x2="25.6693" y2="35.4941" gradientUnits="userSpaceOnUse">
<stop stop-color="#F7B678"/>
<stop offset="1" stop-color="#FFDDA2"/>
</linearGradient>
<linearGradient id="paint43_linear_37_22" x1="19.4537" y1="11.8426" x2="19.4537" y2="13.8304" gradientUnits="userSpaceOnUse">
<stop stop-color="#49393F"/>
<stop offset="1" stop-color="#45323F"/>
</linearGradient>
<radialGradient id="paint44_radial_37_22" cx="0" cy="0" r="1" gradientUnits="userSpaceOnUse" gradientTransform="translate(20.8955 12.2545) rotate(180) scale(1.67392 0.751566)">
<stop stop-color="#635759"/>
<stop offset="1" stop-color="#635759" stop-opacity="0"/>
</radialGradient>
</defs>
</svg>