<svg width="36" height="36" viewBox="0 0 36 36" fill="none" xmlns="http://www.w3.org/2000/svg">
<path d="M22.088 32.83C22.088 34.827 20.469 35.542 18.472 35.542C16.475 35.542 14.856 34.827 14.856 32.83L15.76 24.694C15.76 22.698 16.475 22.886 18.472 22.886C20.469 22.886 21.184 22.698 21.184 24.694L22.088 32.83Z" fill="#662113"/>
<path d="M30.59 27.675C24.296 22.283 21.747 14.563 18.472 14.563C15.197 14.563 12.648 22.284 6.35398 27.675C3.70898 29.941 4.96899 31.252 8.59499 30.989C11.827 30.756 14.85 30.023 18.472 30.023C22.094 30.023 25.118 30.756 28.348 30.989C31.975 31.252 33.234 29.94 30.59 27.675Z" fill="#5C913B"/>
<path d="M28.546 25.538C23.709 21.103 20.991 14.751 18.472 14.751C15.955 14.751 13.236 21.103 8.39904 25.538C4.55504 29.062 13.436 29.853 18.472 25.538C23.506 29.854 32.389 29.062 28.546 25.538Z" fill="#3E721D"/>
<path d="M28.546 21.945C23.709 17.802 20.991 11.868 18.472 11.868C15.955 11.868 13.236 17.802 8.39904 21.945C4.55504 25.237 13.436 25.976 18.472 21.945C23.506 25.977 32.389 25.237 28.546 21.945Z" fill="#5C913B"/>
<path d="M26.336 19.003C22.561 15.768 20.439 11.135 18.472 11.135C16.507 11.135 14.384 15.767 10.608 19.003C7.60804 21.573 14.54 22.15 18.472 19.003C22.402 22.149 29.337 21.573 26.336 19.003Z" fill="#3E721D"/>
<path d="M26.336 16.311C22.561 13.076 20.439 8.44397 18.472 8.44397C16.507 8.44397 14.384 13.076 10.608 16.311C7.60804 18.882 14.54 19.458 18.472 16.311C22.402 19.458 29.337 18.882 26.336 16.311Z" fill="#5C913B"/>
<path d="M24.818 13.92C21.771 11.31 20.058 7.57098 18.471 7.57098C16.885 7.57098 15.1719 11.31 12.1239 13.92C9.70195 15.995 15.298 16.46 18.471 13.92C21.645 16.46 27.241 15.995 24.818 13.92Z" fill="#3E721D"/>
<path d="M24.818 11.894C21.771 9.28398 20.058 5.54498 18.471 5.54498C16.885 5.54498 15.1719 9.28398 12.1239 11.894C9.70195 13.969 15.298 14.434 18.471 11.894C21.645 14.434 27.241 13.969 24.818 11.894Z" fill="#5C913B"/>
<path d="M23.301 8.91102C20.983 6.92502 19.68 4.08002 18.472 4.08002C17.265 4.08002 15.961 6.92502 13.642 8.91102C11.799 10.49 16.057 10.844 18.472 8.91102C20.886 10.844 25.145 10.49 23.301 8.91102V8.91102Z" fill="#3E721D"/>
<path d="M23.301 7.832C20.983 5.845 19.68 3 18.472 3C17.265 3 15.961 5.845 13.642 7.832C11.799 9.411 16.057 9.765 18.472 7.832C20.886 9.764 25.145 9.41 23.301 7.832V7.832Z" fill="#5C913B"/>
<path d="M16.5 13.542C17.3284 13.542 18 12.8704 18 12.042C18 11.2136 17.3284 10.542 16.5 10.542C15.6716 10.542 15 11.2136 15 12.042C15 12.8704 15.6716 13.542 16.5 13.542Z" fill="#FFCC4D"/>
<path d="M20 27C21.1046 27 22 26.1046 22 25C22 23.8954 21.1046 23 20 23C18.8954 23 18 23.8954 18 25C18 26.1046 18.8954 27 20 27Z" fill="#FFCC4D"/>
<path d="M22.5 18C23.8807 18 25 16.8807 25 15.5C25 14.1193 23.8807 13 22.5 13C21.1193 13 20 14.1193 20 15.5C20 16.8807 21.1193 18 22.5 18Z" fill="#DD2E44"/>
<path d="M10 28C11.1046 28 12 27.1046 12 26C12 24.8954 11.1046 24 10 24C8.89543 24 8 24.8954 8 26C8 27.1046 8.89543 28 10 28Z" fill="#DD2E44"/>
<path d="M14 21C15.1046 21 16 20.1046 16 19C16 17.8954 15.1046 17 14 17C12.8954 17 12 17.8954 12 19C12 20.1046 12.8954 21 14 21Z" fill="#A6D388"/>
<path d="M26 25C27.1046 25 28 24.1046 28 23C28 21.8954 27.1046 21 26 21C24.8954 21 24 21.8954 24 23C24 24.1046 24.8954 25 26 25Z" fill="#A6D388"/>
<path d="M19.379 1.67899C19.522 1.95399 19.891 2.22799 20.196 2.28799L21.575 2.55699C21.88 2.61699 21.952 2.84699 21.734 3.06899L20.751 4.07299C20.534 4.29499 20.386 4.72999 20.425 5.03799L20.595 6.43199C20.633 6.74099 20.436 6.87999 20.157 6.74199L18.9 6.11699C18.621 5.97899 18.162 5.97299 17.88 6.10399L16.606 6.69799C16.324 6.82799 16.13 6.68399 16.176 6.37599L16.381 4.98599C16.426 4.67899 16.29 4.24099 16.079 4.01299L15.12 2.98599C14.908 2.75899 14.985 2.52899 15.292 2.47799L16.677 2.24399C16.984 2.19299 17.358 1.92799 17.509 1.65599L18.19 0.426992C18.341 0.154992 18.584 0.157992 18.727 0.432992L19.379 1.67899Z" fill="#FFAC33"/>
</svg>